# xmcd
#
# Track frame offsets:
#	150
#	19442
#	37562
#	60107
#	81700
#	99152
#	118572
#	136645
#	163237
#
# Disc length: 2420 seconds
#
# Revision: 0
# Processed by: cddbd v1.5PL3 Copyright (c) Steve Scherf et al.
# Submitted via: dBpowerAMP V4.0
#
DISCID=64097209
DTITLE=Jeff Finlin - Original Fin
DYEAR=1999
DGENRE=
TTITLE0=Love and Happiness
TTITLE1=June
TTITLE2=The Perfect Mark of Cain
TTITLE3=Waiting on a Flood
TTITLE4=She's a Mama Now
TTITLE5=Kisses From a Train
TTITLE6=Weight of the Flame
TTITLE7=Eighteen Tons
TTITLE8=Moonlight Becomes the Dawn
EXTD=
EXTT0=
EXTT1=
EXTT2=
EXTT3=
EXTT4=
EXTT5=
EXTT6=
EXTT7=
EXTT8=
PLAYORDER=
